<svg xmlns="http://www.w3.org/2000/svg" width="1631.84" height="123.25" viewBox="0 0 1631.84 123.25">
  <path id="header-img" d="M10.2,0H37.42V-37.4l54.44-3.4V-64.94l-54.44,3.4V-96.05H95.773v-23.8H10.2Zm99.183,0H136.6V-42.16h46.955V0h27.22V-38.25c0-9.35-5.1-14.45-14.461-14.45H178.794v-6.8c14.461-1.7,30.452-7.14,30.452-26.86,0-26.86-24.838-33.49-53.419-33.49H109.383ZM136.6-65.96V-96.05h19.224c16.162,0,26.2,0,26.2,15.13,0,14.96-10.037,14.96-26.2,14.96ZM320.508,0h27.56L313.363-119.85H257.222L222.686,0h27.56l10.718-38.42H309.62ZM267.6-62.22l14.29-50.83h6.8l14.291,50.83ZM359.977,0H387.2V-96.05l-5.1-17H388.9L425.135,0h53.589V-119.85H451.5V-23.8l5.1,17H449.8L413.567-119.85H359.977ZM492.335-60.01c0,35.02,23.477,61.71,61.585,61.71,33.515,0,55.631-18.36,59.2-48.11H585.9C583.181-30.6,570.592-22.1,554.26-22.1c-20.925,0-34.706-13.09-34.706-37.91,0-24.65,13.78-37.74,34.706-37.74,16.332,0,28.921,8.33,31.643,24.14h27.22c-3.573-29.58-25.689-47.94-59.2-47.94C515.812-121.55,492.335-94.86,492.335-60.01ZM701.588-96.05v-23.8h-81.66v23.8h27.22V-23.8h-27.22V0h81.66V-23.8h-27.22V-96.05ZM819.145-32.98c0-24.99-33.855-34.51-55.971-41.99-19.224-6.46-22.116-8.5-22.116-13.94,0-6.12,7.656-8.84,19.9-8.84,14.8,0,26.029,4.08,26.029,18.7h27.22c0-23.8-16.5-42.5-53.249-42.5-30.963,0-47.125,11.22-47.125,31.62,0,23.46,20.585,30.26,45.934,38.76,17.523,5.95,32.154,9.86,32.154,18.53,0,6.46-5.784,10.54-23.307,10.54-23.818,0-33-5.78-33-24.14h-27.22c0,30.26,16.162,47.94,59.374,47.94C804.684,1.7,819.145-12.41,819.145-32.98ZM882.091,0h44.233c31.3,0,56.311-4.59,56.311-31.79,0-25.5-19.394-27.2-37.6-27.88v-6.8C957.8-67.49,973.789-68,973.789-90.44c0-23.63-16.162-29.41-49.506-29.41H882.091Zm27.22-74.29V-96.05h18.374c11.058,0,18.884,0,18.884,10.88s-7.826,10.88-18.884,10.88Zm0,50.49V-50.49h20.415c16.162,0,25.689,0,25.689,13.43,0,13.26-9.527,13.26-25.689,13.26ZM1085.561,0h27.56l-34.706-119.85h-56.141L987.739,0h27.56l10.718-38.42h48.656Zm-52.909-62.22,14.291-50.83h6.8l14.291,50.83Zm136.61-57.63H1125.03V0h44.233c31.983,0,65.328-8.33,65.328-60.01C1234.59-111.52,1201.246-119.85,1169.262-119.85Zm0,96.05H1152.25V-96.05h17.013c21.266,0,38.108,1.7,38.108,36.04C1207.37-25.5,1190.528-23.8,1169.262-23.8ZM1334.114,0h27.56l-34.705-119.85h-56.141L1236.292,0h27.56l10.718-38.42h48.656ZM1281.2-62.22l14.291-50.83h6.8l14.291,50.83Zm192.922,29.24c0-24.99-33.855-34.51-55.971-41.99-19.224-6.46-22.116-8.5-22.116-13.94,0-6.12,7.656-8.84,19.9-8.84,14.8,0,26.029,4.08,26.029,18.7h27.22c0-23.8-16.5-42.5-53.249-42.5-30.963,0-47.125,11.22-47.125,31.62,0,23.46,20.585,30.26,45.934,38.76,17.523,5.95,32.154,9.86,32.154,18.53,0,6.46-5.784,10.54-23.307,10.54-23.818,0-33-5.78-33-24.14h-27.22c0,30.26,16.162,47.94,59.374,47.94C1459.666,1.7,1474.127-12.41,1474.127-32.98Zm10.208-11.56c0,29.92,18.543,46.24,54.1,46.24s54.27-16.32,54.27-46.24v-75.31h-27.22v63.24c0,21.42-2.042,34.51-27.05,34.51s-26.88-13.09-26.88-34.51v-63.24h-27.22ZM1623.156,1.7c11.228,0,18.884-8.16,18.884-18.87,0-10.37-7.656-18.53-18.884-18.53-11.569,0-18.544,8.16-18.544,18.53C1604.613-6.46,1611.588,1.7,1623.156,1.7Z" transform="translate(-10.2 121.55)" fill="#fff"/>
</svg>
